<?xml version="1.0" encoding="iso-8859-1"?>
<!-- Generator: Adobe Illustrator 19.0.0, SVG Export Plug-In . SVG Version: 6.00 Build 0)  -->
<svg version="1.1" id="Capa_1" xmlns="http://www.w3.org/2000/svg" xmlns:xlink="http://www.w3.org/1999/xlink" x="0px" y="0px"
	 viewBox="0 0 511.999 511.999" style="enable-background:new 0 0 511.999 511.999;" xml:space="preserve">
<path style="fill:#ED6FB6;" d="M237.638,154.185c0-56.539,45.834-102.374,102.374-102.374s102.374,45.834,102.374,102.374
	s-45.834,159.471-102.374,159.471S237.638,210.724,237.638,154.185z"/>
<path style="fill:#FF95BE;" d="M237.638,154.185c0-56.539,45.834-102.374,102.374-102.374v261.844
	C283.472,313.656,237.638,210.724,237.638,154.185z"/>
<path style="fill:#EDBC3A;" d="M69.614,154.185c0-56.539,45.834-102.374,102.373-102.374s102.374,45.834,102.374,102.374
	s-45.834,159.471-102.374,159.471S69.614,210.724,69.614,154.185z"/>
<path style="fill:#FFDD59;" d="M69.614,154.185c0-56.539,45.834-102.374,102.373-102.374v261.844
	C115.448,313.656,69.614,210.724,69.614,154.185z"/>
<path style="fill:#0B89B9;" d="M153.626,102.374C153.626,45.834,199.46,0,255.999,0s102.373,45.834,102.373,102.374
	s-45.834,159.471-102.373,159.471S153.626,158.913,153.626,102.374z"/>
<path style="fill:#06ABE1;" d="M153.626,102.374C153.626,45.834,199.46,0,255.999,0v261.844
	C199.46,261.844,153.626,158.913,153.626,102.374z"/>
<g>
	<path style="fill:#B7C7D5;" d="M340.012,307.778c-8.313,0-15.053,6.74-15.053,15.053v174.116c0,8.313,6.74,15.053,15.053,15.053
		c8.313,0,15.053-6.74,15.053-15.053V322.83C355.064,314.517,348.325,307.778,340.012,307.778z"/>
	<path style="fill:#B7C7D5;" d="M171.987,307.778c-8.313,0-15.053,6.74-15.053,15.053v174.116c0,8.313,6.74,15.053,15.053,15.053
		c8.313,0,15.053-6.74,15.053-15.053V322.83C187.04,314.517,180.3,307.778,171.987,307.778z"/>
	<path style="fill:#B7C7D5;" d="M255.999,262.7c-8.313,0-15.053,6.74-15.053,15.053v173.622c0,8.313,6.74,15.053,15.053,15.053
		s15.053-6.74,15.053-15.053V277.753C271.052,269.44,264.313,262.7,255.999,262.7z"/>
</g>
<path style="fill:#FF95BE;" d="M356.62,300.803h-33.216c-8.313,0-15.053,6.74-15.053,15.053c0,8.313,6.74,15.053,15.053,15.053
	h33.216c8.313,0,15.053-6.74,15.053-15.053C371.672,307.543,364.933,300.803,356.62,300.803z"/>
<path style="fill:#FFDD59;" d="M188.594,300.803h-33.216c-8.313,0-15.053,6.74-15.053,15.053c0,8.313,6.74,15.053,15.053,15.053
	h33.216c8.313,0,15.053-6.74,15.053-15.053C203.647,307.543,196.908,300.803,188.594,300.803z"/>
<path style="fill:#06ABE1;" d="M272.607,249.875h-33.216c-8.834,0-15.996,7.162-15.996,15.996c0,8.834,7.162,15.996,15.996,15.996
	h33.216c8.834,0,15.996-7.162,15.996-15.996C288.603,257.037,281.441,249.875,272.607,249.875z"/>
<g>
</g>
<g>
</g>
<g>
</g>
<g>
</g>
<g>
</g>
<g>
</g>
<g>
</g>
<g>
</g>
<g>
</g>
<g>
</g>
<g>
</g>
<g>
</g>
<g>
</g>
<g>
</g>
<g>
</g>
</svg>
